<?xml version="1.0" encoding="utf-8"?>
<!-- Generator: Adobe Illustrator 21.1.0, SVG Export Plug-In . SVG Version: 6.00 Build 0)  -->
<svg version="1.1" id="Layer_1" xmlns="http://www.w3.org/2000/svg" xmlns:xlink="http://www.w3.org/1999/xlink" x="0px" y="0px"
	 viewBox="0 0 78.3 76" style="enable-background:new 0 0 78.3 76;" xml:space="preserve">
<style type="text/css">
	.st0{fill:#4F6933;}
	.st1{fill:#75A857;}
</style>
<g>
	<g>
		<g>
			<polygon class="st0" points="25.7,19.7 31.9,12.1 38.5,31.3 44.1,11.9 51.6,19.7 46.4,7.1 31,7.1 			"/>
			<circle class="st1" cx="38.2" cy="2.8" r="2.8"/>
		</g>
		<g>
			<polygon class="st0" points="15.6,46.6 10,38.5 30.3,37.5 13.1,26.8 22.8,21.7 9.2,23.2 4.9,38.1 			"/>
			<ellipse transform="matrix(0.2775 -0.9607 0.9607 0.2775 -26.773 24.3443)" class="st1" cx="2.8" cy="30" rx="2.8" ry="2.8"/>
		</g>
		<g>
			<polygon class="st0" points="38.9,66.5 29.4,69 35.5,49.6 19.5,62 18.1,51.1 14.8,64.4 27.2,73.6 			"/>
			<ellipse transform="matrix(0.5937 -0.8047 0.8047 0.5937 -50.8174 44.725)" class="st1" cx="18.9" cy="72.7" rx="2.8" ry="2.8"/>
		</g>
		<g>
			<polygon class="st0" points="61.8,49.2 62.1,59 44.5,48.7 53,67.1 42.1,66 54.2,72.2 66,62.2 			"/>
			
				<ellipse transform="matrix(0.7602 -0.6497 0.6497 0.7602 -30.3685 57.9308)" class="st1" cx="63.3" cy="70.1" rx="2.8" ry="2.8"/>
		</g>
		<g>
			<polygon class="st0" points="55.1,21.7 64.3,25.1 48.1,37.5 68.3,36.5 63.3,46.2 73.6,37.3 68.7,22.6 			"/>
			<ellipse transform="matrix(0.9489 -0.3156 0.3156 0.9489 -5.0391 25.1055)" class="st1" cx="75" cy="28.1" rx="2.8" ry="2.8"/>
		</g>
	</g>
</g>
</svg>
